<svg width="299" height="299" viewBox="0 0 299 299" fill="none" xmlns="http://www.w3.org/2000/svg">
<path d="M165.442 261.56L160.379 273.854C159.374 276.288 157.074 277.936 154.486 278.047C152.776 278.112 151.052 278.16 149.31 278.16C89.716 278.128 36.9881 235.981 23.9232 177.906L3.63672 182.5C10.9681 215.075 29.3694 244.64 55.4536 265.77C81.8404 287.139 115.081 298.937 149.086 299.001H149.39C151.387 299.001 153.368 298.953 155.348 298.873C166.018 298.425 175.554 291.718 179.627 281.777L186.239 265.706L165.442 261.56Z" fill="url(#paint0_linear_576_64)"/>
<path d="M5.30259 189.109C1.77794 176.204 -0.00538616 162.885 1.22194e-05 149.507C1.22194e-05 88.1991 38.383 32.1413 95.5188 10.0352L103.01 29.4842C53.8293 48.5162 20.7969 96.7475 20.7969 149.507C20.7906 161.019 22.3217 172.48 25.3496 183.586L5.30259 189.109Z" fill="url(#paint1_linear_576_64)"/>
<path d="M263.602 90.2816C241.367 47.4616 197.601 20.8576 149.41 20.8576C132.335 20.8576 115.74 24.1548 100.117 30.6382L92.1484 11.3807C110.309 3.84262 129.572 0 149.41 0C205.396 0 256.221 30.8939 282.05 80.6447L263.602 90.2816Z" fill="url(#paint2_linear_576_64)"/>
<path d="M104.799 118.664C116.86 118.664 126.683 125.114 131.73 136.368L132.13 137.248L152.382 130.349L151.951 129.309C144.108 110.148 126.043 98.2383 104.8 98.2383C89.8655 98.2383 77.7256 103.041 67.6939 112.901C57.7276 122.698 52.6797 135.022 52.6797 149.541C52.6797 163.932 57.7276 176.194 67.6939 185.99C77.7256 195.851 89.8655 200.653 104.8 200.653C126.043 200.653 144.108 188.743 151.951 169.599L152.383 168.559L132.098 161.643L131.714 162.556C127.194 173.617 117.131 180.227 104.799 180.227C96.3979 180.227 89.306 177.283 83.6823 171.487C77.9977 165.613 75.1222 158.233 75.1222 149.558C75.1222 140.818 77.9335 133.582 83.6834 127.436C89.2897 121.608 96.3968 118.664 104.799 118.664Z" fill="#09293F"/>
<path d="M231.655 100.125L202.792 173.391L173.737 100.125H149.969L190.717 200.123L161.726 270.651L182.506 274.797L254.113 100.125H231.655Z" fill="#09293F"/>
<path d="M282.052 80.6445C292.567 101.128 299.001 125.189 299.001 149.815C299.001 207.279 266.682 257.17 219.284 282.196L209.043 264.037C250.144 242.602 278.218 199.497 278.218 149.815C278.218 128.254 272.947 108.129 263.603 90.2803L282.052 80.6445Z" fill="url(#paint3_linear_576_64)"/>
<defs>
<linearGradient id="paint0_linear_576_64" x1="1157.68" y1="5509.48" x2="15432.2" y2="9320.88" gradientUnits="userSpaceOnUse">
<stop stop-color="#315C55"/>
<stop offset="1" stop-color="#09293F"/>
</linearGradient>
<linearGradient id="paint1_linear_576_64" x1="5593.25" y1="4891.95" x2="4264.61" y2="17826.4" gradientUnits="userSpaceOnUse">
<stop stop-color="#4FB38D"/>
<stop offset="1" stop-color="#315C55"/>
</linearGradient>
<linearGradient id="paint2_linear_576_64" x1="2733.48" y1="4514.08" x2="13268.8" y2="6445.46" gradientUnits="userSpaceOnUse">
<stop stop-color="#4FB38D"/>
<stop offset="1" stop-color="#97DEC0"/>
</linearGradient>
<linearGradient id="paint3_linear_576_64" x1="5054.19" y1="6306.98" x2="-690.772" y2="17063" gradientUnits="userSpaceOnUse">
<stop stop-color="#97DEC0"/>
<stop offset="1" stop-color="#FFFFF0" stop-opacity="0"/>
</linearGradient>
</defs>
</svg>
