<svg width="307" height="307" viewBox="0 0 307 307" fill="none" xmlns="http://www.w3.org/2000/svg">
<path fill-rule="evenodd" clip-rule="evenodd" d="M153.501 12.2383C73.5202 12.2383 8.66406 77.08 8.66406 157.075C8.66406 221.07 50.1642 275.359 107.712 294.513C114.948 295.856 117.606 291.371 117.606 287.545C117.606 284.092 117.472 272.682 117.409 260.58C77.1155 269.341 68.613 243.491 68.613 243.491C62.0245 226.75 52.5315 222.298 52.5315 222.298C39.388 213.309 53.522 213.496 53.522 213.496C68.0638 214.515 75.7244 228.421 75.7244 228.421C88.6424 250.559 109.607 244.16 117.872 240.462C119.172 231.101 122.926 224.709 127.068 221.092C94.8975 217.434 61.0771 205.013 61.0771 149.515C61.0771 133.702 66.7374 120.782 76.0026 110.637C74.4964 106.991 69.5388 92.2598 77.4033 72.3095C77.4033 72.3095 89.5634 68.4169 117.241 87.1559C128.797 83.9444 141.19 82.3302 153.501 82.2751C165.805 82.3302 178.205 83.9396 189.782 87.1511C217.426 68.4121 229.572 72.3047 229.572 72.3047C237.456 92.2526 232.498 106.986 230.994 110.632C240.281 120.777 245.901 133.698 245.901 149.51C245.901 205.14 212.018 217.386 179.766 220.974C184.964 225.469 189.593 234.286 189.593 247.796C189.593 267.175 189.425 282.772 189.425 287.543C189.425 291.397 192.034 295.913 199.373 294.491C256.888 275.318 298.34 221.046 298.34 157.075C298.338 77.0848 233.489 12.2383 153.501 12.2383Z" fill="#181616"/>
<path d="M63.5202 220.19C63.2012 220.91 62.0691 221.125 61.0378 220.634C59.9825 220.164 59.3949 219.183 59.7355 218.461C60.0473 217.717 61.1817 217.513 62.2298 218.01C63.2851 218.482 63.8848 219.473 63.5178 220.192L63.5202 220.19ZM69.3868 226.735C68.6984 227.376 67.3481 227.078 66.4319 226.064C65.4821 225.056 65.3046 223.706 66.0074 223.056C66.7221 222.418 68.0316 222.72 68.9814 223.728C69.9264 224.749 70.1135 226.088 69.3892 226.738L69.3868 226.735ZM75.0998 235.075C74.2124 235.694 72.759 235.116 71.862 233.828C70.9745 232.537 70.9745 230.99 71.8859 230.374C72.7806 229.755 74.2124 230.314 75.1238 231.59C76.0065 232.897 76.0065 234.446 75.0998 235.075ZM82.9212 243.136C82.1297 244.011 80.4364 243.776 79.1988 242.584C77.9348 241.416 77.5822 239.754 78.3761 238.881C79.182 238.003 80.8825 238.248 82.1273 239.433C83.3912 240.598 83.7726 242.263 82.9259 243.134L82.9212 243.136ZM93.7141 247.815C93.3616 248.95 91.7354 249.465 90.0925 248.981C88.4543 248.484 87.3822 247.158 87.718 246.012C88.0538 244.868 89.6919 244.333 91.3445 244.848C92.9826 245.342 94.0547 246.662 93.7141 247.815ZM105.57 248.681C105.61 249.876 104.219 250.864 102.5 250.888C100.766 250.928 99.3624 249.959 99.3457 248.784C99.3457 247.578 100.708 246.602 102.44 246.568C104.159 246.537 105.572 247.496 105.572 248.679L105.57 248.681ZM116.598 246.806C116.804 247.969 115.607 249.166 113.897 249.485C112.218 249.796 110.659 249.072 110.443 247.918C110.237 246.724 111.455 245.527 113.134 245.218C114.847 244.923 116.382 245.623 116.598 246.806Z" fill="#181616"/>
</svg>
