<svg width="267" height="267" viewBox="0 0 267 267" fill="none" xmlns="http://www.w3.org/2000/svg">
<path d="M267 133.5C267 207.23 207.23 267 133.5 267C59.7705 267 0 207.23 0 133.5C0 59.7705 59.7705 0 133.5 0C207.23 0 267 59.7705 267 133.5Z" fill="#E23237"/>
<path d="M267 133.498C267 133.064 266.972 132.638 266.967 132.205C240.29 106.487 213.313 80.4393 212.556 79.5433C193.749 57.2885 165.632 43.1562 134.213 43.1562C77.5925 43.1562 31.6914 89.0573 31.6914 145.678C31.6914 153.511 32.5988 161.129 34.2634 168.456C71.4233 207.605 105.983 243.208 131.849 266.956C132.4 266.964 132.946 266.998 133.5 266.998C207.229 266.998 267 207.229 267 133.498Z" fill="#B52E31"/>
<path d="M200.117 144.196H68.844C68.843 144.019 68.8315 143.843 68.8315 143.664C68.8315 107.407 98.2224 78.0148 134.481 78.0148C170.738 78.0148 200.131 107.407 200.131 143.664C200.131 143.843 200.118 144.019 200.117 144.196ZM215.651 141.225H236.624C235.496 114.846 224.409 91.0519 207.014 73.5071L192.533 87.9908L189.031 84.4896L203.444 70.0757C185.683 53.8012 162.164 43.7303 136.298 43.2109V61.8728H131.347V43.2318C105.466 43.9452 81.9875 54.2351 64.3259 70.7036L77.5111 83.8888L74.0098 87.3901L60.7871 74.1663C43.7596 91.6464 32.921 115.171 31.8051 141.225H51.0051V146.177H31.707C31.7437 153.676 32.6012 161.148 34.2644 168.46H234.166C235.828 161.148 236.686 153.676 236.723 146.177H215.651V141.225Z" fill="white"/>
</svg>
