<svg width="256" height="269" viewBox="0 0 256 269" fill="none" xmlns="http://www.w3.org/2000/svg">
<path d="M234.153 0.00353798C234.475 -0.0171003 234.795 0.0528577 235.079 0.205453C235.362 0.358048 235.597 0.587153 235.757 0.866702C235.917 1.14625 235.995 1.46502 235.982 1.78674C235.97 2.10846 235.867 2.42022 235.686 2.68654L169.388 92.7435C169.148 93.0146 168.853 93.2316 168.523 93.3803C168.193 93.5289 167.835 93.6057 167.472 93.6057C167.11 93.6057 166.752 93.5289 166.422 93.3803C166.092 93.2316 165.797 93.0146 165.556 92.7435L142.179 66.6845C141.897 66.392 141.553 66.1665 141.173 66.0248C140.792 65.883 140.384 65.8285 139.98 65.8654C139.575 65.9022 139.184 66.0295 138.835 66.2377C138.486 66.446 138.189 66.7299 137.964 67.0685L123.784 85.0795C123.564 85.5774 123.484 86.1257 123.551 86.6658C123.619 87.2059 123.832 87.7174 124.168 88.1455L166.322 131.833C166.563 132.104 166.858 132.321 167.188 132.47C167.518 132.618 167.877 132.695 168.239 132.695C168.601 132.695 168.959 132.618 169.29 132.47C169.62 132.321 169.915 132.104 170.155 131.833L252.93 38.7105C253.169 38.4534 253.479 38.2731 253.821 38.1925C254.162 38.1119 254.52 38.1346 254.849 38.2579C255.177 38.3812 255.462 38.5993 255.666 38.8847C255.871 39.1701 255.986 39.5097 255.996 39.8605V266.346C256.012 266.601 255.973 266.857 255.882 267.097C255.791 267.336 255.65 267.554 255.469 267.735C255.288 267.916 255.07 268.057 254.831 268.148C254.591 268.238 254.335 268.277 254.079 268.262H1.92037C1.66464 268.277 1.40852 268.238 1.16893 268.148C0.929336 268.057 0.711741 267.916 0.530532 267.735C0.349323 267.554 0.208628 267.336 0.117751 267.097C0.0268751 266.857 -0.0121121 266.601 0.00336824 266.346V1.92054C-0.0122596 1.66472 0.026618 1.40851 0.117428 1.16884C0.208239 0.929178 0.348911 0.711532 0.530137 0.530307C0.711362 0.349081 0.929009 0.208409 1.16867 0.117598C1.40834 0.0267878 1.66455 -0.0120899 1.92037 0.00353798H234.153ZM169.005 152.911C163.359 152.811 157.752 153.856 152.521 155.983C147.29 158.11 142.544 161.274 138.569 165.284C134.594 169.295 131.472 174.069 129.392 179.319C127.313 184.569 126.318 190.186 126.467 195.831C126.467 222.274 145.628 239.136 170.537 239.136C182.069 239.423 193.376 235.923 202.729 229.172C203.149 228.791 203.419 228.272 203.489 227.71C203.559 227.147 203.426 226.578 203.112 226.106L196.214 215.759C195.84 215.329 195.32 215.053 194.754 214.982C194.189 214.912 193.617 215.052 193.148 215.376C187.153 219.47 180.097 221.733 172.838 221.891C159.424 221.891 150.993 213.46 149.461 203.496C149.475 203.297 149.56 203.11 149.701 202.969C149.842 202.828 150.029 202.743 150.227 202.73H208.094C208.691 202.689 209.253 202.434 209.676 202.011C210.099 201.588 210.354 201.026 210.393 200.43V198.13C210.393 171.305 193.531 152.91 169.005 152.91M111.905 138.347C100.265 128.832 85.537 123.923 70.5164 124.551C44.4574 124.551 28.3624 139.88 28.3624 158.275C28.3624 200.046 91.9774 186.633 91.9774 206.178C91.9774 212.309 85.8454 218.441 72.8164 218.441C60.4417 218.542 48.5029 213.876 39.4764 205.411C39.21 205.161 38.8935 204.972 38.548 204.855C38.2024 204.738 37.8359 204.697 37.473 204.733C37.1101 204.769 36.7591 204.882 36.4435 205.065C36.128 205.248 35.8552 205.497 35.6434 205.794L25.6804 219.591C25.3671 220.063 25.2336 220.632 25.304 221.195C25.3745 221.757 25.6442 222.276 26.0644 222.657C36.4114 232.237 50.9744 238.753 71.2844 238.753C101.175 238.753 115.738 223.423 116.504 203.496C116.504 162.108 52.8894 173.988 52.8894 156.36C52.8894 149.845 58.6384 145.246 68.6014 145.246C79.5851 145.095 90.2824 148.751 98.8764 155.593C99.1265 155.797 99.415 155.95 99.725 156.042C100.035 156.134 100.36 156.163 100.681 156.127C101.003 156.091 101.314 155.992 101.596 155.834C101.878 155.677 102.126 155.464 102.325 155.21L112.289 141.797C112.494 141.546 112.647 141.258 112.739 140.948C112.831 140.638 112.86 140.313 112.824 139.991C112.788 139.67 112.689 139.359 112.531 139.077C112.374 138.795 112.161 138.547 111.906 138.348M169.389 169.772C179.812 169.189 188.811 176.999 189.7 187.401C189.687 187.599 189.602 187.786 189.461 187.927C189.32 188.068 189.133 188.153 188.934 188.167H149.844C149.646 188.153 149.459 188.068 149.318 187.927C149.177 187.786 149.092 187.599 149.078 187.401C150.36 177.203 159.113 169.606 169.389 169.772Z" fill="#2CB134"/>
</svg>
